<svg xmlns="http://www.w3.org/2000/svg" xmlns:svg="http://www.w3.org/2000/svg" id="svg4649" width="256" height="256" version="1.1" viewBox="0 0 67.733 67.733"><title id="title828">FreeRouting logo</title><metadata id="metadata4646"/><g id="layer1" transform="translate(0,-229.26668)"><rect style="fill:#9c3e3e;fill-opacity:1;stroke-width:.26458332" id="rect4651" width="68.555" height="68.287" x="-.401" y="229.114"/><polygon id="polygon6" points="92.294 99.548 91.139 100.275 90.047 101.108 89.019 102.046 88.056 103.089 87.158 104.235 86.391 105.42 85.753 106.645 85.246 107.909 84.87 109.214 84.623 110.558 84.507 111.942 84.521 113.366 84.661 114.827 84.908 116.352 85.347 118.028 85.94 119.498 86.686 120.763 87.68 121.924 88.68 122.87 90.021 123.906 91.37 124.682 92.729 125.2 94.112 125.548 95.49 125.766 96.917 125.866 98.403 125.745 99.771 125.313 101.178 124.677 102.513 123.869 103.775 122.89 104.853 121.832 105.887 120.54 106.664 119.388 107.443 118.079 108.222 116.614 108.811 115.158 109.196 113.527 109.378 111.72 109.381 110.249 109.262 108.549 109.072 107.125 108.731 105.601 108.248 104.282 107.675 102.944 106.903 101.812 106.052 100.739 104.78 99.417 103.36 98.442 101.791 97.812 99.469 97.529 99.469 97.511 98.224 97.627 98.224 106.212 101.075 106.29 102.509 106.78 103.585 107.599 104.39 108.7 105.032 109.898 105.399 111.21 105.439 112.568 105.204 114.169 104.792 115.694 104.215 116.969 103.247 117.992 102.042 118.662 100.805 119.276 99.498 119.639 97.978 119.531 96.464 119.066 95.154 118.414 93.951 117.589 92.934 116.352 92.37 115.037 92.09 113.673 92.062 112.257 92.369 110.675 93.058 109.329 94.159 108.165 95.461 107.208 96.822 106.556 98.224 106.212 98.224 97.627 97.555 97.689 96.144 97.996 94.797 98.408 93.513 98.925" transform="matrix(0.26288729,0,0,0.23800491,2.3620194,241.23666)" style="fill:#fff"/><polygon id="polygon8" points="48.026 103.362 47.864 101.789 56.431 101.142 56.431 94.085 56.134 94.09 54.343 94.209 52.607 94.413 51.187 94.627 49.807 94.858 48.033 95.201 46.53 95.555 44.947 96.046 43.646 96.689 43.327 98.236 43.297 99.731 43.297 101.752 43.314 103.391 43.343 105.264 43.367 106.93 43.392 108.453 43.419 109.833 43.463 111.634 43.512 113.113 43.584 114.584 43.677 116.213 43.71 117.708 43.736 119.104 43.759 120.812 43.769 122.344 43.775 124.091 43.802 126.076 43.849 127.911 43.916 129.596 44.002 131.132 44.108 132.519 44.304 134.319 44.498 135.675 45.38 136.773 46.827 136.706 48.169 136.482 49.555 136.257 50.957 136.024 52.419 135.752 53.897 135.465 55.194 135.042 54.835 133.728 53.441 130.7 52.913 129.318 52.356 127.796 51.808 126.273 51.311 124.957 50.791 123.687 52.163 123.282 53.803 123.404 55.419 123.688 57.013 124.133 58.363 124.698 59.568 125.488 60.797 126.384 62.016 127.274 63.131 128.058 64.379 128.889 65.543 129.614 67.098 130.543 68.383 131.287 69.771 132.07 71.261 132.893 72.532 133.593 73.968 134.428 75.313 135.267 76.569 136.11 77.922 135.655 78.801 134.575 79.557 133.297 80.094 132.053 80.657 130.496 81.112 129.082 81.54 127.727 81.966 126.384 80.844 125.578 79.653 126.369 78.415 127.168 77.105 127.552 70.335 124.843 68.872 124.237 67.511 123.677 66.252 123.163 66.618 121.855 67.935 120.938 69.045 119.945 70.101 118.782 71.132 117.629 72.435 116.23 73.581 114.832 74.447 113.289 75.033 111.603 75.337 109.771 75.362 107.795 75.209 106.391 74.872 104.985 74.192 103.588 73.397 102.211 72.714 101.04 71.914 99.854 70.997 98.756 69.939 97.846 68.582 96.981 67.27 96.076 66.057 95.335 64.726 94.783 63.277 94.422 61.843 94.247 59.884 94.11 57.981 94.057 56.431 94.085 56.431 101.142 57.794 101.267 59.25 101.599 60.743 102.168 62.315 103.009 63.673 104.026 64.817 105.22 65.36 106.479 65.924 107.745 66.192 109.09 66.19 110.453 65.925 111.836 65.381 113.212 64.748 114.586 64.046 115.79 62.965 116.761 61.741 117.443 60.406 117.956 59.081 118.233 57.725 118.37 56.186 118.41 54.676 118.558 53.146 118.874 51.827 119.367 50.572 119.909 50.129 118.615 49.847 116.8 49.585 115.029 49.387 113.654 49.169 112.122 48.916 110.318 48.666 108.482 48.445 106.812 48.255 105.308" transform="matrix(0.26288729,0,0,0.23800491,2.3620194,241.23666)" style="fill:#fff"/><polygon id="polygon10" points="117.814 92.292 116.472 92.008 115.191 92.474 113.911 91.979 113.104 93.078 113.411 94.45 113.516 95.844 113.516 97.459 113.552 98.929 113.625 100.327 113.642 101.859 113.648 103.343 113.669 104.884 113.717 106.27 113.814 107.783 114.931 115.697 115.472 117.016 116.331 118.282 117.362 119.162 118.574 119.964 119.818 120.596 121.089 121.138 122.412 121.42 123.92 121.272 125.333 121.029 126.837 120.666 128.349 120.081 129.69 119.409 130.792 118.403 131.556 117.231 132.283 116 132.338 117.403 132.357 118.763 133.776 119.006 135.089 118.305 137.074 117.792 138.427 118.026 138.83 116.733 138.073 115.508 137.465 114.251 137.124 112.938 136.817 111.582 136.493 110.116 136.246 108.748 136.022 107.375 135.786 105.767 135.601 104.315 135.434 102.622 135.358 101.205 135.344 99.744 135.357 98.142 135.422 96.741 135.62 95.388 135.971 93.892 136.388 92.557 135.259 91.769 133.909 91.672 131.731 91.089 131.731 90.746 131.729 92.152 131.88 93.589 132.048 94.958 132.067 96.391 131.982 97.787 131.913 99.196 131.884 100.88 131.871 102.482 131.866 103.862 131.912 105.251 131.992 106.615 131.762 108.057 131.306 109.409 130.446 110.67 129.507 111.728 128.306 112.535 126.995 113.064 125.693 113.462 124.226 113.692 122.759 113.699 121.472 113.14 120.361 112.32 119.451 111.157 118.799 109.815 118.374 108.436 118.066 107.056 117.822 105.713 117.643 104.236 117.499 102.711 117.319 101.062 117.153 99.442 117.106 97.777 117.155 96.413 117.228 94.965 117.351 93.588" transform="matrix(0.26288729,0,0,0.23800491,2.3620194,241.23666)" style="fill:#fff"/><polygon id="polygon12" points="165.971 89.859 161.171 93.1 161.987 94.391 162.584 95.712 162.993 97.188 163.343 98.722 163.618 100.127 163.844 101.557 164.137 105.666 164.183 107.194 164.163 108.619 164.004 110.278 163.78 111.91 163.532 113.453 164.968 113.047 166.248 112.486 167.668 112.38 168.99 112.774" transform="matrix(0.26288729,0,0,0.23800491,2.3620194,241.23666)" style="fill:#fff"/><polygon id="polygon14" points="182.879 94.064 183.999 93.151 185.159 92.416 186.461 91.752 187.81 91.33 189.348 91.3 190.881 91.753 192.103 92.463 192.991 93.58 193.274 95.054 193.335 96.581 193.305 97.934 193.269 99.347 193.262 100.783 193.399 102.366 193.532 103.73 193.675 105.078 194.102 106.373 194.571 107.804 195.006 109.284 195.388 110.711 195.722 112.072 197.07 111.738 198.205 110.973 198.91 109.774 198.28 108.434 197.958 107.099 197.601 105.715 197.228 104.028 197.196 102.428 197.197 100.832 197.312 98.851 197.443 97.08 197.541 95.626 197.622 94.177 197.566 92.807 197.293 91.312 197 89.663 196.461 88.356 195.781 87.125 194.863 85.952 193.573 84.891 192.246 84.345 190.615 84.113 189.191 84.144 187.596 84.352 186.182 84.668 184.755 85.119 183.527 85.738 182.427 86.755 181.569 87.903 180.76 89.14 179.944 85.822 179.447 84.498 179.447 84.002 178.865 85.366 178.109 86.644 177.124 87.633 175.858 88.245 174.596 88.762 173.18 89.029 171.865 89.398 172.532 90.71 173.831 91.976 174.416 93.282 175.059 94.819 175.545 96.12 175.944 97.504 176.154 98.842 176.399 100.843 176.564 102.359 176.7 103.743 176.852 105.571 176.939 107.103 176.956 108.684 176.724 110.076 176.4 111.414 177.684 110.961 178.95 110.404 180.33 110.443 181.064 109.195 180.804 107.694 180.617 106.05 180.528 104.138 180.487 102.485 180.496 101.09 180.583 99.632 180.863 98.096 181.261 96.769 181.969 95.265" transform="matrix(0.26288729,0,0,0.23800491,2.3620194,241.23666)" style="fill:#fff"/><polygon id="polygon16" points="148.84 107.781 148.525 106.411 148.303 105.047 148.022 103.706 147.843 102.34 147.714 100.747 147.637 99.165 147.612 97.79 148.699 96.849 150.15 96.658 151.544 96.503 153.023 96.288 154.505 96.129 155.862 95.922 155.587 94.546 155.031 93.264 155.842 90.314 154.424 90.474 152.944 90.706 151.476 90.975 149.876 91.282 148.44 91.541 147.166 90.953 146.983 89.523 147.017 88.1 147.421 83.719 146.299 84.526 144.96 84.854 143.564 84.49 142.654 85.506 143.089 86.945 143.585 88.642 143.976 90.076 144.318 91.581 143.222 92.372 141.812 92.771 141.69 95.398 141.478 96.838 141.084 98.251 142.487 98.422 143.801 98.071 144.936 110.237 145.049 111.637 145.39 113.16 145.95 114.432 146.831 115.522 147.928 116.385 149.268 116.613 150.719 116.449 152.098 116.218 153.536 115.93 155.237 115.58 154.805 114.206 154.156 112.989 154.216 111.552 154.729 110.114 155.285 108.791 153.865 108.678 152.483 108.983 151.103 109.186 149.705 108.972" transform="matrix(0.26288729,0,0,0.23800491,2.3620194,241.23666)" style="fill:#fff"/><polygon id="polygon18" points="162.059 82.081 161.099 89.121 165.971 86.271 166.377 83.933" transform="matrix(0.26288729,0,0,0.23800491,2.3620194,241.23666)" style="fill:#fff"/><polygon id="polygon20" points="214.094 107.434 212.738 107.741 211.364 107.912 209.685 107.89 207.939 107.627 206.585 107.27 205.208 106.793 204.576 112.325 204.488 113.762 205.928 114.521 207.44 114.179 208.916 113.767 210.356 113.287 211.681 112.771 213.012 112.213 214.236 111.608 215.42 110.915 216.555 110.165 217.763 109.327 218.93 108.524 220.045 107.75 220.949 106.681 221.829 105.557 222.691 104.308 223.313 102.915 223.85 101.633 224.275 97.675 224.542 96.208 224.98 94.319 225.352 92.708 225.709 91.124 225.966 89.757 226.222 88.427 226.503 87.094 225.194 87.635 224.248 88.624 223.35 89.709 222.415 90.696 221.214 91.45 220.7 92.862 220.337 94.38 219.858 95.935 219.335 97.342 218.662 98.611 217.572 99.448 216.283 99.92 214.911 100.241 213.525 100.638 212.197 100.94 210.719 100.985 209.353 100.587 208.094 100.002 206.97 99.161 206.258 97.978 205.748 96.594 205.477 95.188 205.603 93.584 206.043 92.212 206.815 90.875 207.672 89.832 208.689 88.87 209.817 87.99 211.031 87.152 212.228 86.399 214.109 85.847 215.561 85.621 217.062 85.536 218.518 85.981 219.66 86.838 220.641 87.822 221.041 89.168 222.191 88.44 222.955 87.297 223.86 85.96 224.637 84.835 225.452 83.682 226.127 82.439 225.266 81.17 224.063 80.22 222.748 79.681 221.278 79.369 218.47 79.203 218.47 79.148 217.073 79.206 215.6 79.462 213.691 79.967 211.94 80.593 210.348 81.338 208.914 82.204 207.64 83.189 206.536 84.207 205.481 85.32 204.477 86.528 203.572 87.788 202.701 89.353 202.065 90.982 201.663 92.675 201.495 94.433 201.528 95.788 201.688 97.178 202.051 98.703 202.562 99.995 203.5 101.505 204.73 102.772 205.919 103.617 207.346 104.366 208.827 104.878 210.361 105.155 211.95 105.196 213.591 105.002 214.997 104.643 216.338 104.057 217.586 103.425 218.883 102.674 218.589 104.15 217.685 105.155 216.577 106.095 215.331 106.892" transform="matrix(0.26288729,0,0,0.23800491,2.3620194,241.23666)" style="fill:#fff"/><polygon id="polygon22" points="62.63 81.679 62.083 80.212 61.741 78.837 61.505 77.364 61.329 75.971 61.196 74.505 61.142 72.771 61.293 71.385 61.9 69.959 63.096 69.079 64.347 68.559 65.68 68.248 67.147 68.091 68.654 68.009 70.025 67.95 71.373 67.85 70.851 66.56 69.767 65.59 69.253 64.29 69.021 62.888 69.247 61.539 69.889 60.304 70.713 59.216 71.794 58.043 71.794 57.636 70.435 58.037 69.035 58.504 67.74 58.956 66.126 59.739 64.724 60.665 63.369 61.759 62.064 63.021 60.806 64.452 59.224 63.457 59.149 62.043 57.959 62.737 56.993 63.709 55.643 64.111 55.29 65.433 56.037 66.821 56.642 68.085 57.231 69.446 57.554 70.805 57.857 72.314 58.119 74 58.273 75.477 58.35 76.931 58.352 78.36 58.279 79.765 58.044 81.403 57.77 83.022 57.515 84.468 57.204 86.125 57.981 87.475 57.981 87.91 59.382 87.322 60.818 86.804 62.189 86.45 63.555 86.379 63.593 85.01" transform="matrix(0.26288729,0,0,0.23800491,2.3620194,241.23666)" style="fill:#fff"/><polygon id="polygon24" points="82.912 80.791 84.456 81.448 86.041 81.897 87.665 82.139 89.329 82.173 90.734 81.92 92.267 81.627 93.64 81.331 95.272 80.916 96.72 80.563 98.134 80.14 98.361 78.79 97.613 77.6 97.334 76.149 97.274 74.756 97.554 73.228 98.057 71.651 98.551 70.165 97.294 70.68 96.09 71.46 94.677 72.102 93.337 72.554 91.854 73.033 90.405 73.479 89.042 73.79 87.66 74.138 86.221 74.467 84.771 74.452 83.455 73.825 82.5 72.841 98.321 64.838 98.162 63.397 97.773 61.645 97.29 60.298 96.451 58.831 95.388 57.74 93.981 56.936 92.635 56.429 91.251 56.117 89.807 56.006 88.395 56.085 87.828 56.159 87.828 61.172 90.007 61.223 91.606 61.643 92.791 62.685 80.864 68.738 80.731 67.327 81.051 65.837 81.652 64.523 82.485 63.411 83.583 62.58 85.018 61.965 86.47 61.465 87.828 61.172 87.828 56.159 86.994 56.268 85.301 56.764 83.779 57.529 82.368 58.506 81.067 59.694 79.877 61.095 78.81 62.684 77.949 64.315 77.304 65.975 76.874 67.663 76.661 69.379 76.664 71.124 76.789 72.476 77.089 73.969 77.585 75.443 78.258 76.77 79.107 77.951 80.133 78.984 81.407 79.926" transform="matrix(0.26288729,0,0,0.23800491,2.3620194,241.23666)" style="fill:#fff"/><polygon id="polygon26" points="109.05 76.182 110.595 76.839 112.179 77.288 113.803 77.53 115.468 77.564 116.872 77.311 118.406 77.018 119.778 76.722 121.411 76.307 122.858 75.954 124.273 75.531 124.5 74.182 123.751 72.991 123.472 71.541 123.412 70.147 123.692 68.62 124.195 67.042 124.689 65.556 123.433 66.071 122.229 66.851 120.815 67.493 119.476 67.945 117.992 68.424 116.544 68.87 115.18 69.181 113.798 69.529 112.359 69.859 110.909 69.843 109.593 69.216 108.639 68.232 124.459 60.229 124.3 58.788 123.911 57.036 123.429 55.689 122.589 54.222 121.526 53.131 120.12 52.327 118.773 51.82 117.39 51.508 115.946 51.397 114.533 51.476 113.966 51.55 113.966 56.563 116.145 56.614 117.745 57.034 118.93 58.076 107.002 64.129 106.87 62.718 107.19 61.228 107.79 59.914 108.624 58.802 109.721 57.971 111.157 57.356 112.608 56.856 113.966 56.563 113.966 51.55 113.132 51.659 111.439 52.155 109.917 52.92 108.506 53.897 107.205 55.085 106.015 56.486 104.948 58.075 104.087 59.706 103.442 61.366 103.013 63.054 102.799 64.771 102.802 66.515 102.927 67.867 103.227 69.36 103.724 70.834 104.396 72.161 105.245 73.342 106.271 74.375 107.546 75.317" transform="matrix(0.26288729,0,0,0.23800491,2.3620194,241.23666)" style="fill:#fff"/><polygon id="polygon28" points="33.528 86.914 33.333 85.566 32.733 84.151 32.007 82.769 31.278 81.572 30.787 80.226 30.886 78.8 32.014 77.706 33.261 77.057 34.74 76.501 44.702 75.913 45.884 75.239 46.829 74.15 46.602 72.803 46.824 71.372 47.586 70.239 30.276 74.634 29.709 73.304 29.401 71.981 29.228 70.101 29.053 68.282 28.92 66.802 28.823 65.395 28.775 64.002 32.722 62.3 34.206 62.036 35.813 61.746 37.186 61.494 38.621 61.23 40.023 60.972 41.381 60.723 43.334 60.368 45.188 60.034 46.941 59.721 48.357 59.505 49.758 59.307 50.352 57.901 50.305 56.507 50.331 54.932 50.452 53.544 50.716 52.217 51.423 50.925 51.423 49.954 50.013 50.139 48.39 50.38 47.031 50.598 45.553 50.846 44.099 51.101 42.611 51.365 41.021 51.653 39.507 51.934 34.807 52.86 33.482 53.125 31.587 53.51 29.804 53.881 28.132 54.238 26.571 54.579 25.262 54.967 24.944 64.155 25.161 68.849 25.335 72.615 25.466 75.456 25.53 76.835 25.601 78.358 26.227 90.227 26.329 92.389 26.419 94.293 26.498 95.94 26.566 97.328 26.646 98.927 26.721 100.301 26.918 101.65 33.587 96.018 33.632 94.508 33.653 92.927 33.668 91.402 33.663 89.944 33.618 88.273" transform="matrix(0.26288729,0,0,0.23800491,2.3620194,241.23666)" style="fill:#fff;image-rendering:auto"/></g></svg>